Coordinates
version=1
nRows=10
nColumns=40
inDegrees=yes

Units are S.I. units (second, meters, Newtons, ...)
If the header above contains a line with 'inDegrees', this indicates whether rotational values are in degrees (yes) or radians (no).

endheader
time	pelvis_tilt	pelvis_list	pelvis_rotation	pelvis_tx	pelvis_ty	pelvis_tz	hip_flexion_r	hip_adduction_r	hip_rotation_r	knee_angle_r	knee_angle_r_beta	ankle_angle_r	subtalar_angle_r	mtp_angle_r	hip_flexion_l	hip_adduction_l	hip_rotation_l	knee_angle_l	knee_angle_l_beta	ankle_angle_l	subtalar_angle_l	mtp_angle_l	lumbar_extension	lumbar_bending	lumbar_rotation	arm_flex_r	arm_add_r	arm_rot_r	elbow_flex_r	pro_sup_r	wrist_flex_r	wrist_dev_r	arm_flex_l	arm_add_l	arm_rot_l	elbow_flex_l	pro_sup_l	wrist_flex_l	wrist_dev_l
      3.10000000	      3.59075580	     -5.47484143	      1.49405946	     -0.34724999	      0.94896683	     -1.05152725	     40.59415981	     -0.90010221	      4.64596907	      9.69795050	      0.16926117	      0.85322719	      0.00000000	      0.00000000	      9.10282864	     -1.37163039	     -8.08747365	     19.67551426	      0.34340251	     -5.30446520	      0.00000000	      0.00000000	    -14.18692867	      3.93228735	      0.06488324	     88.98755922	    -10.24856992	     24.86157237	     18.68461970	     84.84398056	      0.00000000	      0.00000000	     89.23132140	    -15.90516740	     30.65363301	     26.64408903	     84.45424362	      0.00000000	      0.00000000
      3.10500000	      3.58671150	     -5.52640201	      1.45792425	     -0.34756800	      0.94877959	     -1.05137464	     40.73825677	     -0.87550946	      4.53550772	      9.66719729	      0.16872442	      0.71832924	      0.00000000	      0.00000000	      9.28633212	     -1.48569995	     -8.17651362	     20.01612580	      0.34934730	     -5.14582686	      0.00000000	      0.00000000	    -14.24871120	      3.97192345	      0.06158178	     89.04529342	    -10.23485778	     25.85791458	     18.74570230	     82.93064115	      0.00000000	      0.00000000	     89.29707581	    -16.21682054	     31.72391406	     26.93775742	     82.60725413	      0.00000000	      0.00000000
      3.11000000	      3.53254104	     -5.52635412	      1.45326201	     -0.34787254	      0.94855086	     -1.05133436	     40.96240567	     -0.91891013	      4.43424896	      9.66279674	      0.16864762	      0.62612623	      0.00000000	      0.00000000	      9.44575115	     -1.49530155	     -8.08345631	     20.14696005	      0.35163079	     -5.17518427	      0.00000000	      0.00000000	    -14.25876379	      3.94886567	      0.07506227	     89.04744268	    -10.19867983	     25.00527052	     18.76029204	     84.77803822	      0.00000000	      0.00000000	     89.29353753	    -15.98702820	     30.42705697	     26.75287584	     84.49872812	      0.00000000	      0.00000000
      3.11500000	      3.50599400	     -5.54610429	      1.41643831	     -0.34821649	      0.94832235	     -1.05126665	     41.14850173	     -0.94403465	      4.27851544	      9.72022228	      0.16964988	      0.75024757	      0.00000000	      0.00000000	      9.63634760	     -1.55305521	     -8.12200796	     20.42518287	      0.35648669	     -5.09221217	      0.00000000	      0.00000000	    -14.29675655	      3.94555628	      0.12081494	     89.07864321	    -10.19289200	     24.94064568	     18.80478940	     84.76514147	      0.00000000	      0.00000000	     89.31430601	    -16.00419017	     30.38544527	     26.82225323	     84.50962827	      0.00000000	      0.00000000
      3.12000000	      3.54702757	     -5.55966785	      1.40364456	     -0.34879374	      0.94814372	     -1.05112506	     41.25830773	     -0.96552179	      4.16642996	      9.68491768	      0.16903370	      0.63255325	      0.00000000	      0.00000000	      9.77047808	     -1.60509139	     -8.09277228	     20.69294421	      0.36116001	     -5.02458065	      0.00000000	      0.00000000	    -14.44511203	      3.93850702	      0.12764334	     89.14210827	    -10.21268613	     25.31580912	     18.91525137	     84.14407287	      0.00000000	      0.00000000	     89.37714564	    -16.12287464	     30.61020452	     27.03305254	     83.92079077	      0.00000000	      0.00000000
      3.12500000	      3.50639369	     -5.60299743	      1.37589428	     -0.34915992	      0.94784160	     -1.05098894	     41.48635615	     -0.95559408	      4.02258565	      9.75066216	      0.17018116	      0.63906026	      0.00000000	      0.00000000	      9.99660232	     -1.68704768	     -8.07755152	     21.00362269	      0.36658237	     -4.93947698	      0.00000000	      0.00000000	    -14.47196240	      3.95898553	      0.16347065	     89.17531265	    -10.15536175	     24.89982289	     18.91789156	     84.70117692	      0.00000000	      0.00000000	     89.38700107	    -16.04789758	     30.21835785	     27.01742062	     84.37164192	      0.00000000	      0.00000000
      3.13000000	      3.53220903	     -5.58721705	      1.29319167	     -0.34939586	      0.94760890	     -1.05086249	     41.70334721	     -1.08714323	      3.24590023	     10.06441800	      0.17565723	      0.89547413	      0.00000000	      0.00000000	     10.12525600	     -1.71354102	     -8.13952832	     21.30155300	      0.37178224	     -4.85885008	      0.00000000	      0.00000000	    -14.55367988	      3.92455202	      0.27698448	     89.22976502	    -10.19159706	     25.04861523	     18.94718627	     84.73679821	      0.00000000	      0.00000000	     89.39384294	    -16.04427776	     29.99430196	     27.08511050	     84.40856961	      0.00000000	      0.00000000
      3.13500000	      3.48011611	     -5.62477775	      1.28289960	     -0.34981829	      0.94722077	     -1.05077065	     41.92827389	     -1.11494333	      3.01200899	     10.08892675	      0.17608499	      0.84073745	      0.00000000	      0.00000000	     10.39457156	     -1.79345981	     -8.18009238	     21.66416345	      0.37811098	     -4.76799104	      0.00000000	      0.00000000	    -14.57774857	      3.93804089	      0.25630113	     89.24126315	    -10.14607503	     25.00296101	     19.00151889	     84.77820624	      0.00000000	      0.00000000	     89.43447788	    -16.09884224	     29.80986883	     27.19302145	     84.38403135	      0.00000000	      0.00000000
      3.14000000	      3.36896867	     -5.73693326	      1.19026774	     -0.34985494	      0.94676747	     -1.05047885	     42.05833748	     -0.84899445	      3.67218305	      9.66020220	      0.16860233	      0.40784329	      0.00000000	      0.00000000	     10.69008504	     -1.96611465	     -8.22878886	     22.01067119	      0.38415868	     -4.65416408	      0.00000000	      0.00000000	    -14.49112417	      4.01173589	      0.36355919	     89.24974235	    -10.14895517	     25.08178933	     19.00604799	     84.68353317	      0.00000000	      0.00000000	     89.43405615	    -16.09174732	     29.83022632	     27.20316077	     84.35484297	      0.00000000	      0.00000000
      3.14500000	      3.34972060	     -5.77140203	      1.18524321	     -0.35019177	      0.94636723	     -1.05046676	     42.30504964	     -1.00284168	      2.85574665	      9.97499211	      0.17409646	      1.00366624	      0.00000000	      0.00000000	     10.93500746	     -2.02263588	     -8.17921334	     22.40420206	      0.39102709	     -4.50874070	      0.00000000	      0.00000000	    -14.53801857	      4.03897829	      0.35924337	     89.28616631	    -10.11208495	     25.01949524	     19.05670067	     84.67084887	      0.00000000	      0.00000000	     89.45349542	    -16.13363660	     29.72257449	     27.28199545	     84.37739126	      0.00000000	      0.00000000
